<svg xmlns="http://www.w3.org/2000/svg" enable-background="new 0 0 100 100" viewBox="0 0 100 100" id="facebook">
  <path d="M91.1,70.7c0,11.6-9.4,21.1-21.1,21.1H29c-11.6,0-21.1-9.4-21.1-21.1V29.6C7.9,18,17.4,8.6,29,8.6H70
	c11.6,0,21.1,9.4,21.1,21.1V70.7 M53.2,50.1h7.1c0.3,0,0.4-0.1,0.4-0.4l0.9-9.8c0-0.2-0.1-0.4-0.3-0.4h-7.3c-0.3,0-0.4-0.1-0.4-0.4
	c-0.1-2.3-0.7-6.2,2.6-6.2c1.7,0,3.3,0,4.9,0c0.3,0,0.4-0.1,0.4-0.4v-8c0-0.3-0.1-0.4-0.4-0.4c-2.6,0-5.3,0-8,0.1
	c-9.2,0.3-11.2,7.1-10.7,14.9c0,0.3-0.1,0.5-0.4,0.5H38c-0.2,0-0.3,0.1-0.3,0.3v9.8c0,0.3,0.1,0.4,0.4,0.4h4.5
	c0.2,0,0.4,0.1,0.4,0.4l0,25c0,0.3,0.1,0.4,0.4,0.4h9.2c0.1,0,0.3-0.1,0.3-0.3V50.5C52.8,50.3,52.9,50.1,53.2,50.1L53.2,50.1z"></path>
</svg>
